<svg width="129" height="40" viewBox="0 0 129 40" fill="none" xmlns="http://www.w3.org/2000/svg">
<path d="M15.6094 26.3027C15.6094 25.8457 15.5391 25.4355 15.3984 25.0723C15.2695 24.6973 15.0234 24.3574 14.6602 24.0527C14.2969 23.7363 13.7871 23.4258 13.1309 23.1211C12.4746 22.8164 11.625 22.5 10.582 22.1719C9.42188 21.7969 8.32031 21.375 7.27734 20.9062C6.24609 20.4375 5.33203 19.8926 4.53516 19.2715C3.75 18.6387 3.12891 17.9062 2.67188 17.0742C2.22656 16.2422 2.00391 15.2754 2.00391 14.1738C2.00391 13.1074 2.23828 12.1406 2.70703 11.2734C3.17578 10.3945 3.83203 9.64453 4.67578 9.02344C5.51953 8.39062 6.51562 7.9043 7.66406 7.56445C8.82422 7.22461 10.0957 7.05469 11.4785 7.05469C13.3652 7.05469 15.0117 7.39453 16.418 8.07422C17.8242 8.75391 18.9141 9.68555 19.6875 10.8691C20.4727 12.0527 20.8652 13.4062 20.8652 14.9297H15.627C15.627 14.1797 15.4688 13.5234 15.1523 12.9609C14.8477 12.3867 14.3789 11.9355 13.7461 11.6074C13.125 11.2793 12.3398 11.1152 11.3906 11.1152C10.4766 11.1152 9.71484 11.2559 9.10547 11.5371C8.49609 11.8066 8.03906 12.1758 7.73438 12.6445C7.42969 13.1016 7.27734 13.6172 7.27734 14.1914C7.27734 14.625 7.38281 15.0176 7.59375 15.3691C7.81641 15.7207 8.14453 16.0488 8.57812 16.3535C9.01172 16.6582 9.54492 16.9453 10.1777 17.2148C10.8105 17.4844 11.543 17.748 12.375 18.0059C13.7695 18.4277 14.9941 18.9023 16.0488 19.4297C17.1152 19.957 18.0059 20.5488 18.7207 21.2051C19.4355 21.8613 19.9746 22.6055 20.3379 23.4375C20.7012 24.2695 20.8828 25.2129 20.8828 26.2676C20.8828 27.3809 20.666 28.377 20.2324 29.2559C19.7988 30.1348 19.1719 30.8789 18.3516 31.4883C17.5312 32.0977 16.5527 32.5605 15.416 32.877C14.2793 33.1934 13.0078 33.3516 11.6016 33.3516C10.3359 33.3516 9.08789 33.1875 7.85742 32.8594C6.62695 32.5195 5.50781 32.0098 4.5 31.3301C3.50391 30.6504 2.70703 29.7832 2.10938 28.7285C1.51172 27.6738 1.21289 26.4258 1.21289 24.9844H6.50391C6.50391 25.7812 6.62695 26.4551 6.87305 27.0059C7.11914 27.5566 7.46484 28.002 7.91016 28.3418C8.36719 28.6816 8.90625 28.9277 9.52734 29.0801C10.1602 29.2324 10.8516 29.3086 11.6016 29.3086C12.5156 29.3086 13.2656 29.1797 13.8516 28.9219C14.4492 28.6641 14.8887 28.3066 15.1699 27.8496C15.4629 27.3926 15.6094 26.877 15.6094 26.3027ZM23.3438 23.6836V23.3145C23.3438 21.9199 23.543 20.6367 23.9414 19.4648C24.3398 18.2812 24.9199 17.2559 25.6816 16.3887C26.4434 15.5215 27.3809 14.8477 28.4941 14.3672C29.6074 13.875 30.8848 13.6289 32.3262 13.6289C33.7676 13.6289 35.0508 13.875 36.1758 14.3672C37.3008 14.8477 38.2441 15.5215 39.0059 16.3887C39.7793 17.2559 40.3652 18.2812 40.7637 19.4648C41.1621 20.6367 41.3613 21.9199 41.3613 23.3145V23.6836C41.3613 25.0664 41.1621 26.3496 40.7637 27.5332C40.3652 28.7051 39.7793 29.7305 39.0059 30.6094C38.2441 31.4766 37.3066 32.1504 36.1934 32.6309C35.0801 33.1113 33.8027 33.3516 32.3613 33.3516C30.9199 33.3516 29.6367 33.1113 28.5117 32.6309C27.3984 32.1504 26.4551 31.4766 25.6816 30.6094C24.9199 29.7305 24.3398 28.7051 23.9414 27.5332C23.543 26.3496 23.3438 25.0664 23.3438 23.6836ZM28.4062 23.3145V23.6836C28.4062 24.4805 28.4766 25.2246 28.6172 25.916C28.7578 26.6074 28.9805 27.2168 29.2852 27.7441C29.6016 28.2598 30.0117 28.6641 30.5156 28.957C31.0195 29.25 31.6348 29.3965 32.3613 29.3965C33.0645 29.3965 33.668 29.25 34.1719 28.957C34.6758 28.6641 35.0801 28.2598 35.3848 27.7441C35.6895 27.2168 35.9121 26.6074 36.0527 25.916C36.2051 25.2246 36.2812 24.4805 36.2812 23.6836V23.3145C36.2812 22.541 36.2051 21.8145 36.0527 21.1348C35.9121 20.4434 35.6836 19.834 35.3672 19.3066C35.0625 18.7676 34.6582 18.3457 34.1543 18.041C33.6504 17.7363 33.041 17.584 32.3262 17.584C31.6113 17.584 31.002 17.7363 30.498 18.041C30.0059 18.3457 29.6016 18.7676 29.2852 19.3066C28.9805 19.834 28.7578 20.4434 28.6172 21.1348C28.4766 21.8145 28.4062 22.541 28.4062 23.3145ZM52.3301 29.3965C52.9512 29.3965 53.502 29.2793 53.9824 29.0449C54.4629 28.7988 54.8379 28.459 55.1074 28.0254C55.3887 27.5801 55.5352 27.0586 55.5469 26.4609H60.3105C60.2988 27.7969 59.9414 28.9863 59.2383 30.0293C58.5352 31.0605 57.5918 31.875 56.4082 32.4727C55.2246 33.0586 53.9004 33.3516 52.4355 33.3516C50.959 33.3516 49.6699 33.1055 48.5684 32.6133C47.4785 32.1211 46.5703 31.4414 45.8438 30.5742C45.1172 29.6953 44.5723 28.6758 44.209 27.5156C43.8457 26.3438 43.6641 25.0898 43.6641 23.7539V23.2441C43.6641 21.8965 43.8457 20.6426 44.209 19.4824C44.5723 18.3105 45.1172 17.291 45.8438 16.4238C46.5703 15.5449 47.4785 14.8594 48.5684 14.3672C49.6582 13.875 50.9355 13.6289 52.4004 13.6289C53.959 13.6289 55.3242 13.9277 56.4961 14.5254C57.6797 15.123 58.6055 15.9785 59.2734 17.0918C59.9531 18.1934 60.2988 19.5 60.3105 21.0117H55.5469C55.5352 20.3789 55.4004 19.8047 55.1426 19.2891C54.8965 18.7734 54.5332 18.3633 54.0527 18.0586C53.584 17.7422 53.0039 17.584 52.3125 17.584C51.5742 17.584 50.9707 17.7422 50.502 18.0586C50.0332 18.3633 49.6699 18.7852 49.4121 19.3242C49.1543 19.8516 48.9727 20.4551 48.8672 21.1348C48.7734 21.8027 48.7266 22.5059 48.7266 23.2441V23.7539C48.7266 24.4922 48.7734 25.2012 48.8672 25.8809C48.9609 26.5605 49.1367 27.1641 49.3945 27.6914C49.6641 28.2188 50.0332 28.6348 50.502 28.9395C50.9707 29.2441 51.5801 29.3965 52.3301 29.3965Z" fill="#00ACFF"/>
<path d="M66 12.8C66 8.31958 66 6.07937 66.8719 4.36808C67.6389 2.86278 68.8628 1.63893 70.3681 0.871948C72.0794 0 74.3196 0 78.8 0H116.2C120.68 0 122.921 0 124.632 0.871948C126.137 1.63893 127.361 2.86278 128.128 4.36808C129 6.07937 129 8.31958 129 12.8V27.2C129 31.6804 129 33.9206 128.128 35.6319C127.361 37.1372 126.137 38.3611 124.632 39.1281C122.921 40 120.68 40 116.2 40H78.8C74.3196 40 72.0794 40 70.3681 39.1281C68.8628 38.3611 67.6389 37.1372 66.8719 35.6319C66 33.9206 66 31.6804 66 27.2V12.8Z" fill="#00ACFF"/>
<path d="M76.7051 7.40625H81.1699L87.7441 26.1973L94.3184 7.40625H98.7832L89.5371 33H85.9512L76.7051 7.40625ZM74.2969 7.40625H78.7441L79.5527 25.7227V33H74.2969V7.40625ZM96.7441 7.40625H101.209V33H95.9355V25.7227L96.7441 7.40625ZM114.27 33.3516C112.793 33.3516 111.469 33.1172 110.297 32.6484C109.125 32.168 108.129 31.5059 107.309 30.6621C106.5 29.8184 105.879 28.8398 105.445 27.7266C105.012 26.6016 104.795 25.4062 104.795 24.1406V23.4375C104.795 21.9961 105 20.6777 105.41 19.4824C105.82 18.2871 106.406 17.25 107.168 16.3711C107.941 15.4922 108.879 14.8184 109.98 14.3496C111.082 13.8691 112.324 13.6289 113.707 13.6289C115.055 13.6289 116.25 13.8516 117.293 14.2969C118.336 14.7422 119.209 15.375 119.912 16.1953C120.627 17.0156 121.166 18 121.529 19.1484C121.893 20.2852 122.074 21.5508 122.074 22.9453V25.0547H106.957V21.6797H117.1V21.293C117.1 20.5898 116.971 19.9629 116.713 19.4121C116.467 18.8496 116.092 18.4043 115.588 18.0762C115.084 17.748 114.439 17.584 113.654 17.584C112.986 17.584 112.412 17.7305 111.932 18.0234C111.451 18.3164 111.059 18.7266 110.754 19.2539C110.461 19.7812 110.238 20.4023 110.086 21.1172C109.945 21.8203 109.875 22.5938 109.875 23.4375V24.1406C109.875 24.9023 109.98 25.6055 110.191 26.25C110.414 26.8945 110.725 27.4512 111.123 27.9199C111.533 28.3887 112.025 28.752 112.6 29.0098C113.186 29.2676 113.848 29.3965 114.586 29.3965C115.5 29.3965 116.35 29.2207 117.135 28.8691C117.932 28.5059 118.617 27.9609 119.191 27.2344L121.652 29.9062C121.254 30.4805 120.709 31.0312 120.018 31.5586C119.338 32.0859 118.518 32.5195 117.557 32.8594C116.596 33.1875 115.5 33.3516 114.27 33.3516Z" fill="white"/>
</svg>
