<svg width="16" height="13" viewBox="0 0 16 13" fill="none" xmlns="http://www.w3.org/2000/svg">
<rect width="16" height="13" rx="2" fill="url(#paint0_linear_108_5)"/>
<path d="M3.37891 3.3125H4.37109L5.83203 7.48828L7.29297 3.3125H8.28516L6.23047 9H5.43359L3.37891 3.3125ZM2.84375 3.3125H3.83203L4.01172 7.38281V9H2.84375V3.3125ZM7.83203 3.3125H8.82422V9H7.65234V7.38281L7.83203 3.3125ZM11.7266 9.07812C11.3984 9.07812 11.1042 9.02604 10.8438 8.92188C10.5833 8.8151 10.362 8.66797 10.1797 8.48047C10 8.29297 9.86198 8.07552 9.76562 7.82812C9.66927 7.57812 9.62109 7.3125 9.62109 7.03125V6.875C9.62109 6.55469 9.66667 6.26172 9.75781 5.99609C9.84896 5.73047 9.97917 5.5 10.1484 5.30469C10.3203 5.10938 10.5286 4.95964 10.7734 4.85547C11.0182 4.7487 11.2943 4.69531 11.6016 4.69531C11.901 4.69531 12.1667 4.74479 12.3984 4.84375C12.6302 4.94271 12.8242 5.08333 12.9805 5.26562C13.1393 5.44792 13.2591 5.66667 13.3398 5.92188C13.4206 6.17448 13.4609 6.45573 13.4609 6.76562V7.23438H10.1016V6.48438H12.3555V6.39844C12.3555 6.24219 12.3268 6.10286 12.2695 5.98047C12.2148 5.85547 12.1315 5.75651 12.0195 5.68359C11.9076 5.61068 11.7643 5.57422 11.5898 5.57422C11.4414 5.57422 11.3138 5.60677 11.207 5.67188C11.1003 5.73698 11.013 5.82812 10.9453 5.94531C10.8802 6.0625 10.8307 6.20052 10.7969 6.35938C10.7656 6.51562 10.75 6.6875 10.75 6.875V7.03125C10.75 7.20052 10.7734 7.35677 10.8203 7.5C10.8698 7.64323 10.9388 7.76693 11.0273 7.87109C11.1185 7.97526 11.2279 8.05599 11.3555 8.11328C11.4857 8.17057 11.6328 8.19922 11.7969 8.19922C12 8.19922 12.1888 8.16016 12.3633 8.08203C12.5404 8.0013 12.6927 7.88021 12.8203 7.71875L13.3672 8.3125C13.2786 8.4401 13.1576 8.5625 13.0039 8.67969C12.8529 8.79688 12.6706 8.89323 12.457 8.96875C12.2435 9.04167 12 9.07812 11.7266 9.07812Z" fill="white"/>
<defs>
<linearGradient id="paint0_linear_108_5" x1="19" y1="-8.26585e-07" x2="-7.47565e-07" y2="15.5" gradientUnits="userSpaceOnUse">
<stop stop-color="#CFBA7C"/>
<stop offset="1" stop-color="#92804C"/>
</linearGradient>
</defs>
</svg>
